<?xml version="1.0" encoding="utf-8"?>
<!-- Generator: Adobe Illustrator 25.0.1, SVG Export Plug-In . SVG Version: 6.00 Build 0)  -->
<svg version="1.1" id="Calque_1" xmlns="http://www.w3.org/2000/svg" xmlns:xlink="http://www.w3.org/1999/xlink" x="0px" y="0px"
	 viewBox="0 0 349.3 156.9" style="enable-background:new 0 0 349.3 156.9;" xml:space="preserve">
<style type="text/css">
	.st0{fill:none;}
</style>
<rect x="0.2" class="st0" width="349.1" height="159"/>
<g>
	<g>
		<path d="M62.8,61.6c-3,0-4.7-0.9-7-4.1l-3.7-5.2c-1.9-2.6-3.7-3.7-7.8-3.7h-8.1v12.9H33V32.8h3.2v13H42c3.8,0,5.7-1.4,7.9-4.4
			l6.5-8.6h4l-7,9.2c-1.8,2.3-2.9,3.6-4.9,4.6l0,0c3.1,0.6,4.6,1.9,6.4,4.4l3.4,4.6c1.6,2.1,2.8,3.1,4.5,3.1h1l-0.3,2.9L62.8,61.6
			L62.8,61.6z M87.1,61.6V32.8h25l0.3,2.9H90.2v9.9h21v3.2h-21v9.6H114l-0.6,3.2L87.1,61.6L87.1,61.6z M169.7,61.6
			c-2.9,0-4.7-0.9-7-4.1l-1.9-2.8c-1.9-2.7-3.7-3.8-7.7-3.8h-9.8v10.6h-3.2V32.8h14.5c7.2,0,11.2,3.8,11.2,8.9
			c0,4.2-2.8,6.8-6.4,7.9l0,0c1.7,0.6,2.9,1.9,4.1,3.6l1.7,2.3c1.6,2.2,2.7,3.1,4.5,3.1h1l-0.3,2.9h-0.7V61.6z M154.6,35.8h-11.3
			v12.3h11.3c4.5,0,7.8-2.1,7.8-6.1C162.4,37.9,159.1,35.8,154.6,35.8z M194.4,61.6V32.8h3.2v28.8H194.4z M255,61.6l-26.6-24.3h-0.1
			v24.3h-3.2V32.8h2.9l26.6,24.4h0.1V32.8h3.2v28.8H255z M302,62.5c-13.9,0-20.2-7.1-20.2-15.3c0-8.3,6.5-15.2,19.6-15.2
			c4.7,0,9.4,0.9,13.6,2.7V38c-4.1-1.9-8.8-3-13.6-3c-10.8,0-16.1,5.6-16.1,12.3c0,6.9,5.6,12.3,16.7,12.3c4.5,0,8.6-1,11.2-2.2
			v-7.2h-12l0.4-2.9h14.8v12.1C312.7,61.2,307.7,62.5,302,62.5z"/>
	</g>
</g>
<path d="M170.6,88.7c0,0.9,0.5,0.1,1.7,0.1c1.3,0,1.7,0.8,1.7-0.1s-0.8-1.7-1.7-1.7C171.4,87,170.6,87.8,170.6,88.7"/>
<path d="M181.1,88.7c0,0.9-0.5,0.1-1.7,0.1c-1.3,0-1.7,0.8-1.7-0.1s0.8-1.7,1.7-1.7C180.3,87,181.1,87.8,181.1,88.7"/>
<path d="M172.6,85.2c-2.5,0-3.7,1.7-3.7,3.8c0,2.8,2.5,6.4,6.9,7.9c4.4-1.6,6.9-5.2,6.9-7.9c0-2.1-1.2-3.8-3.7-3.8
	c-2.1,0-3.2,1.3-3.2,1.4C175.8,86.5,174.7,85.2,172.6,85.2 M175.9,85.2c0,0,0.9-1.4,3.6-1.3c3,0.1,4.4,2.6,4.4,4.9
	c0,3.3-3.2,7.5-8.1,8.9c-4.9-1.3-8.1-5.6-8.1-8.9c0-2.3,1.5-4.8,4.4-4.9C174.9,83.9,175.9,85.2,175.9,85.2"/>
<path d="M175.9,89.9L175.9,89.9c0.5,0,0.9,0.3,0.9,1c0,0.8-0.5,2.1-0.9,2.1s-0.9-1.4-0.9-2.1C174.9,90.2,175.4,89.9,175.9,89.9"/>
<path d="M175.9,101.6c1.3,0.5,2.7,0.9,4.2,1.1c-0.4,0.4-0.8,0.9-1.2,1.3c-1.2,1.3-2.2,2.6-3,3.9c-0.8-1.3-1.8-2.6-3-3.9
	c-0.4-0.4-0.8-0.9-1.2-1.3C173.2,102.4,174.6,102,175.9,101.6 M175.9,125.4c-2.9,0-2.8-5.2-2.8-5.2c0-3.3,0.8-6.6,2.8-9.9
	c1.9,3.3,2.8,6.6,2.8,9.9C178.6,120.2,178.8,125.4,175.9,125.4 M175.9,81.9c0,0,5.2-0.2,8.1,2.5c1.3,1.3,1.9,3,1.9,5.1
	c0,2.3-1.5,5.1-4,7.1c-1.7,1.3-3.7,2.5-5.9,3.4c-2.2-0.9-4.3-2.1-5.9-3.4c-2.6-2-4-4.8-4-7.1c0-2.1,0.6-3.8,1.9-5.1
	C170.6,81.7,175.9,81.9,175.9,81.9 M183.1,101.6c3.3-3,7.4-6,12.1-8.9c9.1-5.5,18.2-9.3,21.4-10.5c-0.4,1.4-1.2,3.9-3,6.7
	c-2.6,3.9-7.7,9-17.6,11.5C191.4,101.4,187,101.8,183.1,101.6 M155.8,100.3c-9.8-2.4-15-7.6-17.6-11.5c-1.8-2.8-2.7-5.3-3-6.7
	c3.1,1.2,12.3,5,21.4,10.5c4.8,2.9,8.8,5.9,12.1,8.9C164.7,101.8,160.3,101.4,155.8,100.3 M175.9,80.7c0,0-5.7-0.2-8.9,2.9
	c-1.6,1.5-2.4,3.5-2.4,6c0,2.7,1.7,5.8,4.6,8.1c1,0.8,2.6,2,4.8,3.1c-1.1,0.3-2.3,0.6-3.5,0.7c-3.5-3.4-8-6.7-13.3-10
	c-11.2-6.9-22.6-11-22.7-11.1l-1-0.4l0.1,1.1c0,0.2,0.5,4,3.5,8.4c2.7,4.1,8.1,9.5,18.4,12c5.8,1.4,10.7,1.7,14.6,1.3
	c0.7,0.7,1.3,1.3,1.9,2c1.3,1.4,2.3,2.8,3.3,4.2c-2,3.6-2.9,7.2-2.9,10.8c0,0.2,0.1,3.8,1.5,5.3c0.7,0.8,1.3,1,2.1,1s1.4-0.2,2.1-1
	c1.4-1.5,1.5-5.1,1.5-5.3c0-3.6-0.9-7.2-2.9-10.8c0.9-1.4,2-2.8,3.3-4.2c0.6-0.7,1.2-1.3,1.9-2c3.9,0.4,8.7,0.2,14.6-1.3
	c10.3-2.5,15.6-7.9,18.4-12c3-4.5,3.5-8.3,3.5-8.4l0.1-1.1l-1,0.4c-0.1,0-11.5,4.2-22.7,11.1c-5.3,3.2-9.7,6.6-13.3,10
	c-1.2-0.1-2.4-0.4-3.5-0.7c2.2-1.1,3.8-2.3,4.8-3.1c2.9-2.3,4.6-5.4,4.6-8.1c0-2.5-0.8-4.4-2.4-6C181.6,80.5,175.9,80.7,175.9,80.7"
	/>
</svg>
